<?xml version="1.0" encoding="UTF-8"?>
<svg id="Capa_2" data-name="Capa 2" xmlns="http://www.w3.org/2000/svg" xmlns:xlink="http://www.w3.org/1999/xlink" viewBox="0 0 108.22 69.89">
  <defs>
    <style>
      .cls-1 {
        fill: #fff;
      }

      .cls-1, .cls-2 {
        stroke-width: 0px;
      }

      .cls-3 {
        clip-path: url(#clippath);
      }

      .cls-2, .cls-4, .cls-5 {
        fill: #fabd00;
      }

      .cls-5 {
        font-family: Poppins-Bold, Poppins;
        font-size: 7.39px;
        font-weight: 700;
        letter-spacing: .05em;
      }
    </style>
    <clipPath id="clippath">
      <rect class="cls-2" x="47.06" width="17.91" height="56.25"/>
    </clipPath>
  </defs>
  <g id="PORTADA">
    <g>
      <g>
        <rect class="cls-4" x="47.06" width="17.91" height="56.25"/>
        <g class="cls-3">
          <rect class="cls-2" x="47.06" width="17.91" height="56.25"/>
        </g>
      </g>
      <path class="cls-1" d="m61.87,16.82c.02-2.33.47-4.51,1.38-6.55.9-2.04,2.13-3.81,3.67-5.33,1.54-1.52,3.33-2.72,5.38-3.59,2.05-.88,4.23-1.31,6.56-1.29l25.83.17-.08,11.26-25.83-.17c-.78,0-1.52.13-2.2.42-.68.28-1.28.68-1.79,1.18-.51.51-.92,1.1-1.21,1.78-.29.68-.44,1.41-.45,2.19,0,.79.13,1.53.42,2.22.28.69.68,1.3,1.19,1.81.51.51,1.1.92,1.78,1.21.68.29,1.41.44,2.2.45l11.26.08c2.33.02,4.52.47,6.57,1.36,2.05.89,3.83,2.11,5.35,3.65,1.52,1.54,2.71,3.34,3.57,5.4.86,2.06,1.29,4.25,1.27,6.58-.02,2.33-.47,4.51-1.36,6.55-.89,2.04-2.11,3.81-3.65,5.33-1.54,1.52-3.34,2.72-5.4,3.59-2.06.88-4.25,1.31-6.58,1.29l-25-.17.08-11.26,25,.17c.78,0,1.52-.13,2.2-.42.68-.28,1.28-.68,1.79-1.18.51-.51.92-1.1,1.21-1.78.29-.68.44-1.41.45-2.19,0-.79-.13-1.52-.42-2.2-.28-.68-.68-1.28-1.19-1.79-.51-.51-1.1-.92-1.78-1.21-.68-.29-1.41-.44-2.19-.45l-11.26-.08c-2.33-.02-4.51-.47-6.55-1.38-2.04-.9-3.81-2.12-5.33-3.67-1.52-1.54-2.72-3.34-3.59-5.4-.88-2.06-1.31-4.25-1.29-6.58"/>
      <path class="cls-1" d="m0,0h18.5c-2.65,4.71-6.33,9.41-10.34,14.12L0,0Z"/>
      <path class="cls-1" d="m64.96,0l-22.58,39.12-9.9,17.14-6.87-11.91c3.78-7.79,10.69-15.59,17.61-23.38h-20.53C28.89,13.98,35.09,6.99,39.03,0h25.93Z"/>
      <text class="cls-5" transform="translate(37.76 65.42)"><tspan x="0" y="0">ENERGY VOLT OÜ</tspan></text>
    </g>
  </g>
</svg>