<?xml version="1.0" encoding="UTF-8"?>
<svg id="Capa_2" data-name="Capa 2" xmlns="http://www.w3.org/2000/svg" viewBox="0 0 562.93 151.34">
  <defs>
    <style>
      .cls-1 {
        fill: #fe842c;
      }

      .cls-1, .cls-2 {
        stroke-width: 0px;
      }

      .cls-2 {
        fill: #fff;
      }
    </style>
  </defs>
  <g id="Capa_1-2" data-name="Capa 1">
    <g>
      <g>
        <path class="cls-2" d="m94.1,12.44c5.89,5.09,8.84,11.89,8.84,20.38,0,2.5-.2,4.75-.6,6.74-1.3,7.19-4.4,13.51-9.29,18.95-4.9,5.45-11.24,9.37-19.03,11.76l15.88,40.61h-36.56l-13.34-38.06-6.74,38.06H0L18.73,4.79h49.45c11.39,0,20.03,2.55,25.92,7.64Zm-50.2,38.21h13.19c3.2,0,5.72-.72,7.57-2.17,1.85-1.45,3.07-3.72,3.67-6.82.1-.5.15-1.15.15-1.95,0-2.2-.7-3.92-2.1-5.17-1.4-1.25-3.45-1.87-6.14-1.87h-13.19l-3.15,17.98Z"/>
        <path class="cls-2" d="m112.08,45.48c4.2-6.54,9.24-11.54,15.13-14.98,5.89-3.45,12.14-5.17,18.73-5.17,5.49,0,10.04,1.12,13.64,3.37,3.6,2.25,6.09,5.32,7.49,9.22l2.1-11.54h33.11l-14.98,84.51h-33.11l2.1-11.54c-2.8,3.9-6.39,6.97-10.79,9.22-4.4,2.25-9.34,3.37-14.83,3.37-8.49,0-15.33-2.85-20.53-8.54-5.2-5.69-7.79-13.58-7.79-23.67,0-3.8.35-7.49,1.05-11.09,1.6-8.89,4.5-16.61,8.69-23.15Zm49.9,19.55c0-3.4-.9-6.02-2.7-7.87-1.8-1.85-4.25-2.77-7.34-2.77-3.6,0-6.77,1.25-9.52,3.75-2.75,2.5-4.52,5.99-5.32,10.49-.2.9-.3,2.1-.3,3.6,0,3.4.9,6.02,2.7,7.87,1.8,1.85,4.24,2.77,7.34,2.77,3.6,0,6.77-1.25,9.52-3.75,2.75-2.5,4.52-5.99,5.32-10.49.2-.9.3-2.1.3-3.6Z"/>
        <path class="cls-2" d="m255.17,0l-19.63,110.88h-33.26L221.91,0h33.26Z"/>
        <path class="cls-2" d="m262.21,45.48c4.2-6.54,9.24-11.54,15.13-14.98,5.89-3.45,12.14-5.17,18.73-5.17,5.49,0,10.04,1.12,13.64,3.37,3.6,2.25,6.09,5.32,7.49,9.22l2.1-11.54h33.11l-14.98,84.51h-33.11l2.1-11.54c-2.8,3.9-6.39,6.97-10.79,9.22-4.4,2.25-9.34,3.37-14.83,3.37-8.49,0-15.33-2.85-20.53-8.54-5.2-5.69-7.79-13.58-7.79-23.67,0-3.8.35-7.49,1.05-11.09,1.6-8.89,4.5-16.61,8.69-23.15Zm49.9,19.55c0-3.4-.9-6.02-2.7-7.87-1.8-1.85-4.25-2.77-7.34-2.77-3.6,0-6.77,1.25-9.52,3.75-2.75,2.5-4.52,5.99-5.32,10.49-.2.9-.3,2.1-.3,3.6,0,3.4.9,6.02,2.7,7.87,1.8,1.85,4.24,2.77,7.34,2.77,3.6,0,6.77-1.25,9.52-3.75,2.75-2.5,4.52-5.99,5.32-10.49.2-.9.3-2.1.3-3.6Z"/>
        <path class="cls-2" d="m421.64,69.82l23.38,41.06h-37.16l-10.79-19.03-14.08,19.03h-36.56l36.26-44.5-22.77-40.01h37.16l10.79,19.18,14.23-19.18h36.56l-37.01,43.45Z"/>
        <path class="cls-2" d="m495.51,26.37l8.24,42.85,22.47-42.85h36.71l-76.12,124.96h-36.41l29.07-44.65-20.98-80.31h37.01Z"/>
      </g>
      <g>
        <path class="cls-1" d="m28.69,132.59c-.74,1.33-1.87,2.4-3.4,3.22-1.53.82-3.42,1.22-5.68,1.22h-4.18v9.95h-6.75v-27.71h10.93c2.21,0,4.08.38,5.6,1.14,1.53.76,2.67,1.82,3.43,3.16.76,1.34,1.15,2.88,1.15,4.62,0,1.61-.37,3.07-1.1,4.4Zm-6.71-1.84c.63-.6.95-1.46.95-2.57s-.32-1.96-.95-2.57c-.63-.6-1.59-.91-2.88-.91h-3.67v6.95h3.67c1.29,0,2.25-.3,2.88-.91Z"/>
        <path class="cls-1" d="m33.8,121.62c-.75-.7-1.13-1.56-1.13-2.58s.38-1.93,1.13-2.62c.75-.7,1.72-1.05,2.9-1.05s2.11.35,2.86,1.05,1.13,1.57,1.13,2.62-.37,1.89-1.13,2.58c-.75.7-1.7,1.05-2.86,1.05s-2.15-.35-2.9-1.05Zm6.26,3.34v22.02h-6.75v-22.02h6.75Z"/>
        <path class="cls-1" d="m64.55,127.22c1.54,1.67,2.31,3.97,2.31,6.89v12.87h-6.71v-11.96c0-1.47-.38-2.62-1.14-3.43-.76-.82-1.79-1.22-3.08-1.22s-2.32.41-3.08,1.22c-.76.82-1.15,1.96-1.15,3.43v11.96h-6.75v-22.02h6.75v2.92c.68-.97,1.61-1.74,2.76-2.31,1.16-.57,2.46-.85,3.91-.85,2.58,0,4.64.83,6.18,2.51Z"/>
        <path class="cls-1" d="m83.83,141.25v5.72h-3.43c-2.45,0-4.36-.6-5.72-1.8-1.37-1.2-2.05-3.15-2.05-5.86v-8.76h-2.68v-5.6h2.68v-5.37h6.75v5.37h4.42v5.6h-4.42v8.84c0,.66.16,1.13.47,1.42.32.29.84.43,1.58.43h2.41Z"/>
        <path class="cls-1" d="m109.32,124.95v22.02h-6.75v-3c-.68.97-1.61,1.76-2.78,2.35-1.17.59-2.47.89-3.89.89-1.68,0-3.17-.37-4.46-1.13-1.29-.75-2.29-1.84-3-3.26-.71-1.42-1.07-3.09-1.07-5.01v-12.87h6.71v11.96c0,1.47.38,2.62,1.15,3.43.76.82,1.79,1.22,3.08,1.22s2.35-.41,3.12-1.22c.76-.82,1.15-1.96,1.15-3.43v-11.96h6.75Z"/>
        <path class="cls-1" d="m123.89,125.76c1.18-.7,2.5-1.04,3.95-1.04v7.14h-1.85c-1.68,0-2.95.36-3.79,1.09-.84.72-1.26,1.99-1.26,3.81v10.22h-6.75v-22.02h6.75v3.67c.79-1.21,1.78-2.16,2.96-2.86Z"/>
        <path class="cls-1" d="m131.01,129.96c.85-1.71,2.02-3.03,3.49-3.95,1.47-.92,3.12-1.38,4.93-1.38,1.55,0,2.91.32,4.09.95,1.17.63,2.07,1.46,2.7,2.49v-3.12h6.75v22.02h-6.75v-3.12c-.66,1.03-1.57,1.86-2.74,2.49-1.17.63-2.53.95-4.09.95-1.79,0-3.42-.47-4.89-1.4-1.47-.93-2.64-2.26-3.49-3.99-.85-1.72-1.28-3.72-1.28-5.98s.43-4.25,1.28-5.96Zm13.81,2.01c-.93-.97-2.07-1.46-3.41-1.46s-2.48.48-3.41,1.44c-.94.96-1.4,2.28-1.4,3.97s.47,3.02,1.4,4.01c.93.99,2.07,1.48,3.41,1.48s2.48-.49,3.41-1.46c.93-.97,1.4-2.3,1.4-3.99s-.47-3.01-1.4-3.99Z"/>
        <path class="cls-1" d="m184.28,119.27v5.41h-11.29v5.84h8.45v5.25h-8.45v11.21h-6.75v-27.71h18.04Z"/>
        <path class="cls-1" d="m194.58,117.77v29.21h-6.75v-29.21h6.75Z"/>
        <path class="cls-1" d="m221.22,124.95v22.02h-6.75v-3c-.68.97-1.61,1.76-2.78,2.35-1.17.59-2.47.89-3.89.89-1.68,0-3.17-.37-4.46-1.13-1.29-.75-2.29-1.84-3-3.26-.71-1.42-1.07-3.09-1.07-5.01v-12.87h6.71v11.96c0,1.47.38,2.62,1.15,3.43.76.82,1.79,1.22,3.08,1.22s2.35-.41,3.12-1.22c.76-.82,1.15-1.96,1.15-3.43v-11.96h6.75Z"/>
        <path class="cls-1" d="m230.28,145.91c-1.72-.92-3.08-2.24-4.07-3.95-.99-1.71-1.48-3.71-1.48-6s.5-4.26,1.5-5.98c1-1.72,2.37-3.05,4.11-3.97,1.74-.92,3.68-1.38,5.84-1.38s4.11.46,5.84,1.38c1.74.92,3.1,2.24,4.1,3.97,1,1.72,1.5,3.72,1.5,5.98s-.51,4.26-1.52,5.98c-1.01,1.72-2.39,3.05-4.14,3.97-1.75.92-3.7,1.38-5.86,1.38s-4.1-.46-5.82-1.38Zm9.12-5.88c.91-.95,1.36-2.3,1.36-4.07s-.44-3.12-1.32-4.07-1.97-1.42-3.26-1.42-2.41.47-3.28,1.4-1.3,2.3-1.3,4.09.43,3.12,1.28,4.07,1.93,1.42,3.22,1.42,2.39-.47,3.3-1.42Z"/>
        <path class="cls-1" d="m260.93,125.76c1.18-.7,2.5-1.04,3.95-1.04v7.14h-1.85c-1.68,0-2.95.36-3.79,1.09-.84.72-1.26,1.99-1.26,3.81v10.22h-6.75v-22.02h6.75v3.67c.79-1.21,1.78-2.16,2.96-2.86Z"/>
        <path class="cls-1" d="m288.75,137.58h-15.28c.11,1.37.55,2.41,1.32,3.14.78.73,1.73,1.09,2.86,1.09,1.68,0,2.85-.71,3.51-2.13h7.18c-.37,1.45-1.03,2.75-1.99,3.91-.96,1.16-2.16,2.07-3.61,2.72-1.45.66-3.07.99-4.85.99-2.16,0-4.08-.46-5.76-1.38-1.68-.92-3-2.24-3.95-3.95-.95-1.71-1.42-3.71-1.42-6s.47-4.29,1.4-6c.93-1.71,2.24-3.03,3.93-3.95,1.68-.92,3.62-1.38,5.8-1.38s4.03.45,5.68,1.34c1.66.89,2.95,2.17,3.89,3.83s1.4,3.59,1.4,5.8c0,.63-.04,1.29-.12,1.97Zm-6.79-3.75c0-1.16-.39-2.08-1.18-2.76-.79-.68-1.78-1.03-2.96-1.03s-2.09.33-2.86.99c-.78.66-1.26,1.59-1.44,2.8h8.45Z"/>
        <path class="cls-1" d="m296.25,146.3c-1.5-.66-2.68-1.56-3.55-2.7-.87-1.14-1.36-2.43-1.46-3.85h6.67c.08.76.43,1.38,1.06,1.86.63.47,1.41.71,2.33.71.84,0,1.49-.16,1.95-.49.46-.33.69-.76.69-1.28,0-.63-.33-1.1-.99-1.4-.66-.3-1.72-.64-3.2-1.01-1.58-.37-2.9-.76-3.95-1.17-1.05-.41-1.96-1.05-2.72-1.93-.76-.88-1.15-2.07-1.15-3.57,0-1.26.35-2.41,1.05-3.45.7-1.04,1.72-1.86,3.08-2.47,1.36-.6,2.97-.91,4.83-.91,2.76,0,4.94.68,6.53,2.05,1.59,1.37,2.51,3.18,2.74,5.45h-6.24c-.11-.76-.44-1.37-1.01-1.82-.57-.45-1.31-.67-2.23-.67-.79,0-1.4.15-1.82.45-.42.3-.63.72-.63,1.24,0,.63.34,1.1,1.01,1.42.67.32,1.72.63,3.14.95,1.63.42,2.96.84,3.99,1.24,1.03.41,1.93,1.07,2.7,1.97.78.91,1.18,2.12,1.2,3.65,0,1.29-.36,2.44-1.09,3.45s-1.76,1.81-3.12,2.39c-1.36.58-2.93.87-4.72.87-1.92,0-3.63-.33-5.13-.99Z"/>
        <path class="cls-1" d="m314.51,129.96c.93-1.71,2.24-3.03,3.91-3.95,1.67-.92,3.59-1.38,5.74-1.38,2.76,0,5.07.72,6.93,2.17,1.86,1.45,3.07,3.49,3.65,6.12h-7.18c-.6-1.68-1.78-2.53-3.51-2.53-1.24,0-2.22.48-2.96,1.44-.74.96-1.1,2.34-1.1,4.13s.37,3.16,1.1,4.12c.74.96,1.72,1.44,2.96,1.44,1.74,0,2.91-.84,3.51-2.53h7.18c-.58,2.58-1.8,4.6-3.67,6.08-1.87,1.47-4.17,2.21-6.91,2.21-2.16,0-4.07-.46-5.74-1.38-1.67-.92-2.97-2.24-3.91-3.95-.94-1.71-1.4-3.71-1.4-6s.47-4.29,1.4-6Z"/>
        <path class="cls-1" d="m358.97,137.58h-15.28c.11,1.37.55,2.41,1.32,3.14.78.73,1.73,1.09,2.86,1.09,1.68,0,2.85-.71,3.51-2.13h7.18c-.37,1.45-1.03,2.75-1.99,3.91-.96,1.16-2.16,2.07-3.61,2.72-1.45.66-3.07.99-4.85.99-2.16,0-4.08-.46-5.76-1.38-1.68-.92-3-2.24-3.95-3.95-.95-1.71-1.42-3.71-1.42-6s.47-4.29,1.4-6c.93-1.71,2.24-3.03,3.93-3.95,1.68-.92,3.62-1.38,5.8-1.38s4.03.45,5.68,1.34c1.66.89,2.95,2.17,3.89,3.83.93,1.66,1.4,3.59,1.4,5.8,0,.63-.04,1.29-.12,1.97Zm-6.79-3.75c0-1.16-.39-2.08-1.18-2.76-.79-.68-1.78-1.03-2.96-1.03s-2.09.33-2.86.99c-.78.66-1.26,1.59-1.44,2.8h8.45Z"/>
        <path class="cls-1" d="m382.24,127.22c1.54,1.67,2.31,3.97,2.31,6.89v12.87h-6.71v-11.96c0-1.47-.38-2.62-1.14-3.43-.76-.82-1.79-1.22-3.08-1.22s-2.32.41-3.08,1.22c-.76.82-1.15,1.96-1.15,3.43v11.96h-6.75v-22.02h6.75v2.92c.68-.97,1.61-1.74,2.76-2.31,1.16-.57,2.46-.85,3.91-.85,2.58,0,4.64.83,6.18,2.51Z"/>
        <path class="cls-1" d="m401.52,141.25v5.72h-3.43c-2.45,0-4.36-.6-5.72-1.8-1.37-1.2-2.05-3.15-2.05-5.86v-8.76h-2.68v-5.6h2.68v-5.37h6.75v5.37h4.42v5.6h-4.42v8.84c0,.66.16,1.13.47,1.42.32.29.84.43,1.58.43h2.41Z"/>
        <path class="cls-1" d="m425.91,137.58h-15.28c.11,1.37.55,2.41,1.32,3.14.78.73,1.73,1.09,2.86,1.09,1.68,0,2.85-.71,3.51-2.13h7.18c-.37,1.45-1.03,2.75-1.99,3.91-.96,1.16-2.16,2.07-3.61,2.72-1.45.66-3.07.99-4.85.99-2.16,0-4.08-.46-5.76-1.38-1.68-.92-3-2.24-3.95-3.95-.95-1.71-1.42-3.71-1.42-6s.47-4.29,1.4-6c.93-1.71,2.24-3.03,3.93-3.95,1.68-.92,3.62-1.38,5.8-1.38s4.03.45,5.68,1.34c1.66.89,2.95,2.17,3.89,3.83s1.4,3.59,1.4,5.8c0,.63-.04,1.29-.12,1.97Zm-6.79-3.75c0-1.16-.39-2.08-1.18-2.76-.79-.68-1.78-1.03-2.96-1.03s-2.09.33-2.86.99c-.78.66-1.26,1.59-1.44,2.8h8.45Z"/>
      </g>
    </g>
  </g>
</svg>