<?xml version="1.0" encoding="UTF-8"?>
<svg id="Capa_2" data-name="Capa 2" xmlns="http://www.w3.org/2000/svg" viewBox="0 0 1021.26 171.25">
  <defs>
    <style>
      .cls-1 {
        fill: #fff;
        stroke-width: 0px;
      }
    </style>
  </defs>
  <g id="Capa_1-2" data-name="Capa 1">
    <path class="cls-1" d="m892.05,89.06v-7.67c-.08-16.03-3.19-30.24-9.33-42.64-6.14-12.4-14.75-21.96-25.82-28.68-11.06-6.71-23.66-10.07-37.77-10.07s-27,3.4-38.18,10.19c-11.18,6.79-19.77,16.43-25.76,28.9-1.75,3.64-3.21,7.46-4.45,11.43.03-.73.07-1.46.07-2.21,0-14.96-5.59-26.37-16.77-34.23-11.18-7.86-27.49-11.79-48.94-11.79h-59.87v130.35L577.07,2.29h-37.78l-52.48,143.1-23.5-45.45c10-4.73,17.34-10.9,22.04-18.53,4.69-7.62,7.04-17.23,7.04-28.82,0-16.01-5.57-28.4-16.71-37.17-11.14-8.77-26.6-13.15-46.36-13.15h-65.59v38.03c-2.21-10.2-7.33-18.51-15.43-24.89-11.14-8.77-26.6-13.15-46.36-13.15H0v31.02h49.11v135.65h40.18V33.31h41.41v135.65h145.81v-58.95h21.75l29.42,58.95h76.21v-58.95h21.75l29.42,58.95h66.02l9.62-31.14h55.06l9.73,31.14h97.39c20.3-.15,35.62-4.33,45.96-12.53,8.3-6.58,13.2-15.82,14.84-27.64.68,1.59,1.41,3.15,2.19,4.68,6.14,12.13,14.71,21.46,25.7,27.99,10.99,6.53,23.58,9.79,37.78,9.79s26.84-3.38,37.95-10.13c11.11-6.75,19.67-16.39,25.7-28.9,6.03-12.51,9.04-26.9,9.04-43.16Zm-721.17,49v-39.84h63.19v-29.76h-63.19v-35.14h65.45v104.74h-65.45Zm148.27-64.98c-3.85,4.02-9.6,6.02-17.23,6.02h-25.41v-45.9h25.41c7.56,0,13.28,2.05,17.17,6.14,3.89,4.09,5.84,9.74,5.84,16.93s-1.93,12.8-5.78,16.81Zm16.77,26.87c10-4.73,17.34-10.9,22.04-18.53,2.71-4.4,4.61-9.48,5.75-15.2v87.46l-27.79-53.74Zm110.61-26.87c-3.85,4.02-9.6,6.02-17.23,6.02h-25.41v-45.9h25.41c7.56,0,13.28,2.05,17.17,6.14,3.89,4.09,5.84,9.74,5.84,16.93s-1.93,12.8-5.78,16.81Zm93.78,33.73l17.86-57.81,17.97,57.81h-35.83Zm125.09-73.61h19.69c9,0,15.53,1.55,19.57,4.65,4.04,3.1,6.07,8.17,6.07,15.21,0,6.12-1.87,10.75-5.61,13.89-3.74,3.14-10,4.75-18.77,4.82h-20.95v-38.58Zm43.04,99.88c-3.89,3.32-9.46,4.98-16.71,4.98h-26.33v-39.95h28.16c13.81.08,20.72,7.06,20.72,20.95,0,6.03-1.95,10.7-5.84,14.02Zm18.89-49.17c7.71-2.9,13.55-7.4,17.51-13.51.94-1.44,1.76-2.96,2.47-4.55-.74,5.25-1.13,10.73-1.13,16.45v9.39c.03,1.29.1,2.54.16,3.81-4.59-5.58-10.92-9.46-19.03-11.59Zm123.83,5.84c-.08,16.18-2.86,28.58-8.36,37.2-5.49,8.62-13.32,12.94-23.46,12.94-10.69,0-18.74-4.39-24.16-13.16-5.42-8.77-8.13-21.33-8.13-37.66l.11-12.25c1.14-30.22,11.79-45.33,31.94-45.33,10.3,0,18.22,4.29,23.75,12.88,5.53,8.59,8.3,21.16,8.3,37.72v7.67Zm170.08,79.22h-46.36l-28.05-56.44-28.04,56.44h-46.25l47.74-84.02L873.82,2.29h45.79l27.24,55.4,27.25-55.4h45.9l-46.59,82.65,47.85,84.02Z"/>
  </g>
</svg>