<svg width="128" height="40" viewBox="0 0 128 40" fill="none" xmlns="http://www.w3.org/2000/svg">
<path d="M124 40H4C1.8 40 0 38.2 0 36V4C0 1.8 1.8 0 4 0H124C126.2 0 128 1.8 128 4V36C128 38.2 126.2 40 124 40Z" fill="black"/>
<path d="M27 19.799C27 16.699 29.6 15.199 29.7 15.099C28.2 12.999 26 12.699 25.2 12.599C23.3 12.399 21.4 13.699 20.5 13.699C19.5 13.699 18 12.599 16.4 12.599C14.3 12.599 12.4 13.799 11.3 15.699C9.10001 19.499 10.7 25.099 12.8 28.199C13.9 29.699 15.1 31.399 16.7 31.299C18.3 31.199 18.9 30.299 20.8 30.299C22.7 30.299 23.2 31.299 24.9 31.299C26.6 31.299 27.7 29.799 28.7 28.299C29.9 26.599 30.4 24.899 30.4 24.799C30.3 24.699 27 23.499 27 19.799Z" fill="white"/>
<path d="M23.9001 10.6016C24.7001 9.50156 25.3001 8.10156 25.2001 6.60156C24.0001 6.70156 22.4001 7.40156 21.6001 8.50156C20.8001 9.40156 20.1001 10.9016 20.3001 12.3016C21.6001 12.4016 23.0001 11.6016 23.9001 10.6016Z" fill="white"/>
<path d="M49.8 31.1031H47.6L46.4 27.3031H42.2L41.1 31.1031H39L43.2 18.2031H45.8L49.8 31.1031ZM46 25.7031L44.9 22.3031C44.8 22.0031 44.6 21.1031 44.2 19.9031C44.1 20.4031 43.9 21.3031 43.6 22.3031L42.5 25.7031H46Z" fill="white"/>
<path d="M60.5 26.4031C60.5 28.0031 60.1 29.2031 59.2 30.2031C58.4 31.0031 57.5 31.4031 56.3 31.4031C55.1 31.4031 54.2 31.0031 53.7 30.1031V35.0031H51.6V25.0031C51.6 24.0031 51.6 23.0031 51.5 21.9031H53.3L53.4 23.4031C54.1 22.3031 55.1 21.7031 56.5 21.7031C57.6 21.7031 58.5 22.1031 59.2 23.0031C60.1 23.8031 60.5 24.9031 60.5 26.4031ZM58.4 26.4031C58.4 25.5031 58.2 24.7031 57.8 24.2031C57.4 23.6031 56.8 23.3031 56 23.3031C55.5 23.3031 55 23.5031 54.6 23.8031C54.2 24.1031 53.9 24.6031 53.8 25.1031C53.7 25.4031 53.7 25.6031 53.7 25.7031V27.3031C53.7 28.0031 53.9 28.5031 54.3 29.0031C54.7 29.5031 55.3 29.7031 55.9 29.7031C56.7 29.7031 57.3 29.4031 57.7 28.8031C58.2 28.2031 58.4 27.4031 58.4 26.4031Z" fill="white"/>
<path d="M71.2002 26.4031C71.2002 28.0031 70.8002 29.2031 69.9002 30.2031C69.1002 31.0031 68.2002 31.4031 67.0002 31.4031C65.8002 31.4031 64.9002 31.0031 64.4002 30.1031V35.0031H62.3002V25.0031C62.3002 24.0031 62.3002 23.0031 62.2002 21.9031H64.0002L64.1002 23.4031C64.8002 22.3031 65.8002 21.7031 67.2002 21.7031C68.3002 21.7031 69.2002 22.1031 69.9002 23.0031C70.8002 23.8031 71.2002 24.9031 71.2002 26.4031ZM69.1002 26.4031C69.1002 25.5031 68.9002 24.7031 68.5002 24.2031C68.1002 23.6031 67.5002 23.3031 66.7002 23.3031C66.2002 23.3031 65.7002 23.5031 65.3002 23.8031C64.9002 24.1031 64.6002 24.6031 64.5002 25.1031C64.4002 25.4031 64.4002 25.6031 64.4002 25.7031V27.3031C64.4002 28.0031 64.6002 28.5031 65.0002 29.0031C65.4002 29.5031 66.0002 29.7031 66.6002 29.7031C67.4002 29.7031 68.0002 29.4031 68.4002 28.8031C68.9002 28.2031 69.1002 27.4031 69.1002 26.4031Z" fill="white"/>
<path d="M83.1998 27.5016C83.1998 28.6016 82.7998 29.5016 82.0998 30.2016C81.2998 31.0016 80.0998 31.3016 78.5998 31.3016C77.1998 31.3016 76.0998 31.0016 75.2998 30.5016L75.7998 28.8016C76.6998 29.3016 77.6998 29.6016 78.7998 29.6016C79.5998 29.6016 80.1998 29.4016 80.5998 29.1016C80.9998 28.7016 81.1998 28.3016 81.1998 27.7016C81.1998 27.2016 80.9998 26.7016 80.6998 26.4016C80.2998 26.0016 79.6998 25.7016 78.8998 25.4016C76.5998 24.6016 75.4998 23.3016 75.4998 21.7016C75.4998 20.6016 75.8998 19.8016 76.6998 19.1016C77.4998 18.4016 78.4998 18.1016 79.8998 18.1016C81.0998 18.1016 81.9998 18.3016 82.7998 18.7016L82.2998 20.4016C81.5998 20.0016 80.7998 19.8016 79.7998 19.8016C79.0998 19.8016 78.4998 20.0016 78.0998 20.3016C77.7998 20.6016 77.5998 21.0016 77.5998 21.5016C77.5998 22.0016 77.7998 22.4016 78.1998 22.8016C78.4998 23.1016 79.1998 23.4016 80.0998 23.8016C81.1998 24.2016 81.9998 24.8016 82.5998 25.4016C82.8998 25.9016 83.1998 26.6016 83.1998 27.5016Z" fill="white"/>
<path d="M89.9998 23.4H87.6998V27.9C87.6998 29 88.0998 29.6 88.8998 29.6C89.2998 29.6 89.5998 29.6 89.7998 29.5L89.8998 31.1C89.4998 31.3 88.9998 31.3 88.2998 31.3C87.4998 31.3 86.7998 31.1 86.3998 30.6C85.8998 30.1 85.6998 29.3 85.6998 28.1V23.4H84.2998V21.8H85.6998V20.1L87.6998 19.5V21.8H89.9998V23.4Z" fill="white"/>
<path d="M100.3 26.4016C100.3 27.8016 99.9002 29.0016 99.1002 29.9016C98.2002 30.8016 97.1002 31.3016 95.7002 31.3016C94.3002 31.3016 93.2002 30.8016 92.4002 29.9016C91.6002 29.0016 91.2002 27.9016 91.2002 26.5016C91.2002 25.1016 91.6002 23.9016 92.5002 23.0016C93.3002 22.1016 94.5002 21.6016 95.9002 21.6016C97.3002 21.6016 98.4002 22.1016 99.2002 23.0016C99.9002 23.9016 100.3 25.0016 100.3 26.4016ZM98.1002 26.5016C98.1002 25.6016 97.9002 24.9016 97.5002 24.3016C97.1002 23.6016 96.4002 23.2016 95.6002 23.2016C94.8002 23.2016 94.1002 23.6016 93.7002 24.3016C93.3002 24.9016 93.1002 25.7016 93.1002 26.5016C93.1002 27.4016 93.3002 28.1016 93.7002 28.7016C94.1002 29.4016 94.8002 29.8016 95.6002 29.8016C96.4002 29.8016 97.0002 29.4016 97.5002 28.7016C97.9002 28.1016 98.1002 27.3016 98.1002 26.5016Z" fill="white"/>
<path d="M107 23.6C106.8 23.6 106.6 23.5 106.3 23.5C105.6 23.5 105 23.8 104.6 24.3C104.3 24.8 104.1 25.4 104.1 26.1V31H102V24.6C102 23.5 102 22.6 101.9 21.7H103.7L103.8 23.5H103.9C104.1 22.9 104.5 22.4 104.9 22C105.4 21.7 105.9 21.5 106.4 21.5C106.6 21.5 106.8 21.5 106.9 21.5V23.6H107Z" fill="white"/>
<path d="M116.2 26.0016C116.2 26.4016 116.2 26.7016 116.1 26.9016H109.9C109.9 27.8016 110.2 28.5016 110.8 29.0016C111.3 29.4016 112 29.7016 112.8 29.7016C113.7 29.7016 114.6 29.6016 115.3 29.3016L115.6 30.7016C114.7 31.1016 113.7 31.3016 112.5 31.3016C111.1 31.3016 109.9 30.9016 109.1 30.0016C108.3 29.2016 107.9 28.0016 107.9 26.6016C107.9 25.2016 108.3 24.0016 109 23.1016C109.8 22.1016 110.9 21.6016 112.3 21.6016C113.6 21.6016 114.7 22.1016 115.3 23.1016C116 23.9016 116.2 24.9016 116.2 26.0016ZM114.3 25.5016C114.3 24.9016 114.2 24.4016 113.9 23.9016C113.5 23.3016 113 23.0016 112.3 23.0016C111.6 23.0016 111.1 23.3016 110.7 23.8016C110.4 24.2016 110.2 24.8016 110.1 25.4016H114.3V25.5016Z" fill="white"/>
<path d="M45.4002 10.2969C45.4002 11.3969 45.1002 12.2969 44.4002 12.8969C43.8002 13.3969 42.9002 13.6969 41.7002 13.6969C41.1002 13.6969 40.6002 13.6969 40.2002 13.5969V7.39688C40.7002 7.29688 41.3002 7.29688 42.0002 7.29688C43.1002 7.29688 43.9002 7.49688 44.5002 7.99688C45.0002 8.49688 45.4002 9.29688 45.4002 10.2969ZM44.3002 10.2969C44.3002 9.59688 44.1002 8.99688 43.7002 8.59688C43.3002 8.19688 42.7002 7.99688 42.0002 7.99688C41.7002 7.99688 41.4002 7.99688 41.2002 8.09688V12.7969C41.3002 12.7969 41.6002 12.7969 41.9002 12.7969C42.7002 12.7969 43.3002 12.5969 43.7002 12.1969C44.1002 11.7969 44.3002 11.0969 44.3002 10.2969Z" fill="white"/>
<path d="M51 11.2984C51 11.9984 50.8 12.5984 50.4 12.9984C50 13.4984 49.4 13.6984 48.7 13.6984C48 13.6984 47.5 13.4984 47.1 12.9984C46.7 12.5984 46.5 11.9984 46.5 11.2984C46.5 10.5984 46.7 9.99844 47.1 9.59844C47.5 9.09844 48.1 8.89844 48.8 8.89844C49.5 8.89844 50 9.09844 50.4 9.59844C50.8 9.99844 51 10.5984 51 11.2984ZM50 11.2984C50 10.8984 49.9 10.4984 49.7 10.1984C49.5 9.79844 49.2 9.69844 48.8 9.69844C48.4 9.69844 48.1 9.89844 47.9 10.1984C47.7 10.4984 47.6 10.8984 47.6 11.2984C47.6 11.6984 47.7 12.0984 47.9 12.3984C48.1 12.7984 48.4 12.8984 48.8 12.8984C49.2 12.8984 49.5 12.6984 49.7 12.2984C49.9 12.0984 50 11.6984 50 11.2984Z" fill="white"/>
<path d="M58.7 9L57.3 13.6H56.4L55.8 11.6C55.6 11.1 55.5 10.6 55.4 10.1C55.3 10.6 55.2 11.1 55 11.6L54.4 13.6H53.5L52 9H53L53.5 11.2C53.6 11.7 53.7 12.2 53.8 12.7C53.9 12.3 54 11.8 54.2 11.2L54.8 9H55.6L56.2 11.1C56.4 11.6 56.5 12.1 56.6 12.6C56.7 12.1 56.8 11.6 56.9 11.1L57.5 9H58.7Z" fill="white"/>
<path d="M63.9 13.5969H62.9V10.9969C62.9 10.1969 62.6 9.79688 62 9.79688C61.7 9.79688 61.5 9.89688 61.3 10.0969C61.1 10.2969 61 10.5969 61 10.8969V13.5969H60V10.2969C60 9.89687 60 9.49688 60 8.99688H60.9V9.69688C61 9.49688 61.2 9.29688 61.4 9.09688C61.7 8.89688 62 8.79688 62.3 8.79688C62.7 8.79688 63.1 8.89688 63.4 9.19688C63.8 9.49688 63.9 9.99688 63.9 10.6969V13.5969Z" fill="white"/>
<path d="M66.7002 13.5984H65.7002V6.89844H66.7002V13.5984Z" fill="white"/>
<path d="M72.7002 11.2984C72.7002 11.9984 72.5002 12.5984 72.1002 12.9984C71.7002 13.4984 71.1002 13.6984 70.4002 13.6984C69.7002 13.6984 69.2002 13.4984 68.8002 12.9984C68.4002 12.5984 68.2002 11.9984 68.2002 11.2984C68.2002 10.5984 68.4002 9.99844 68.8002 9.59844C69.2002 9.19844 69.8002 8.89844 70.5002 8.89844C71.2002 8.89844 71.7002 9.09844 72.1002 9.59844C72.5002 9.99844 72.7002 10.5984 72.7002 11.2984ZM71.7002 11.2984C71.7002 10.8984 71.6002 10.4984 71.4002 10.1984C71.2002 9.79844 70.9002 9.69844 70.5002 9.69844C70.1002 9.69844 69.8002 9.89844 69.6002 10.1984C69.4002 10.4984 69.3002 10.8984 69.3002 11.2984C69.3002 11.6984 69.4002 12.0984 69.6002 12.3984C69.8002 12.7984 70.1002 12.8984 70.5002 12.8984C70.9002 12.8984 71.2002 12.6984 71.4002 12.2984C71.6002 12.0984 71.7002 11.6984 71.7002 11.2984Z" fill="white"/>
<path d="M77.6004 13.5984H76.7004L76.6004 13.0984C76.3004 13.4984 75.8004 13.6984 75.3004 13.6984C74.9004 13.6984 74.5004 13.5984 74.3004 13.2984C74.1004 12.9984 73.9004 12.6984 73.9004 12.3984C73.9004 11.7984 74.1004 11.3984 74.6004 11.0984C75.1004 10.7984 75.7004 10.6984 76.6004 10.6984V10.5984C76.6004 9.99844 76.3004 9.69844 75.7004 9.69844C75.2004 9.69844 74.9004 9.79844 74.5004 9.99844L74.3004 9.29844C74.7004 8.99844 75.2004 8.89844 75.9004 8.89844C77.1004 8.89844 77.7004 9.49844 77.7004 10.7984V12.4984C77.6004 12.9984 77.6004 13.2984 77.6004 13.5984ZM76.6004 11.9984V11.2984C75.5004 11.2984 74.9004 11.5984 74.9004 12.1984C74.9004 12.3984 75.0004 12.5984 75.1004 12.6984C75.2004 12.7984 75.4004 12.8984 75.6004 12.8984C75.8004 12.8984 76.0004 12.7984 76.2004 12.6984C76.4004 12.5984 76.5004 12.3984 76.6004 12.1984C76.6004 12.1984 76.6004 12.0984 76.6004 11.9984Z" fill="white"/>
<path d="M83.3996 13.6H82.4996V12.9C82.1996 13.5 81.6996 13.7 80.9996 13.7C80.3996 13.7 79.9996 13.5 79.5996 13.1C79.1996 12.7 79.0996 12.1 79.0996 11.4C79.0996 10.7 79.2996 10.1 79.6996 9.6C80.0996 9.2 80.5996 9 81.0996 9C81.6996 9 82.0996 9.2 82.3996 9.6V7H83.3996V12.4C83.3996 12.8 83.3996 13.2 83.3996 13.6ZM82.3996 11.7V10.9C82.3996 10.8 82.3996 10.7 82.3996 10.6C82.2996 10.4 82.1996 10.2 81.9996 10C81.7996 9.8 81.5996 9.8 81.2996 9.8C80.8996 9.8 80.5996 10 80.3996 10.3C80.1996 10.6 80.0996 11 80.0996 11.5C80.0996 12 80.1996 12.3 80.3996 12.6C80.5996 12.9 80.8996 13.1 81.2996 13.1C81.5996 13.1 81.8996 13 82.0996 12.7C82.2996 12.3 82.3996 12 82.3996 11.7Z" fill="white"/>
<path d="M92.0996 11.2984C92.0996 11.9984 91.8996 12.5984 91.4996 12.9984C91.0996 13.4984 90.4996 13.6984 89.7996 13.6984C89.0996 13.6984 88.5996 13.4984 88.1996 12.9984C87.7996 12.5984 87.5996 11.9984 87.5996 11.2984C87.5996 10.5984 87.7996 9.99844 88.1996 9.59844C88.5996 9.09844 89.1996 8.89844 89.8996 8.89844C90.5996 8.89844 91.0996 9.09844 91.4996 9.59844C91.8996 9.99844 92.0996 10.5984 92.0996 11.2984ZM90.9996 11.2984C90.9996 10.8984 90.8996 10.4984 90.6996 10.1984C90.4996 9.79844 90.1996 9.69844 89.7996 9.69844C89.3996 9.69844 89.0996 9.89844 88.8996 10.1984C88.6996 10.4984 88.5996 10.8984 88.5996 11.2984C88.5996 11.6984 88.6996 12.0984 88.8996 12.3984C89.0996 12.7984 89.3996 12.8984 89.7996 12.8984C90.1996 12.8984 90.4996 12.6984 90.6996 12.2984C90.8996 12.0984 90.9996 11.6984 90.9996 11.2984Z" fill="white"/>
<path d="M97.6002 13.5969H96.6002V10.9969C96.6002 10.1969 96.3002 9.79688 95.7002 9.79688C95.4002 9.79688 95.2002 9.89688 95.0002 10.0969C94.8002 10.2969 94.7002 10.5969 94.7002 10.8969V13.5969H93.7002V10.2969C93.7002 9.89687 93.7002 9.49688 93.7002 8.99688H94.6002V9.69688C94.7002 9.49688 94.9002 9.29688 95.1002 9.09688C95.4002 8.89688 95.7002 8.79688 96.0002 8.79688C96.4002 8.79688 96.8002 8.89688 97.1002 9.19688C97.5002 9.49688 97.6002 9.99688 97.6002 10.6969V13.5969Z" fill="white"/>
<path d="M104.4 9.79844H103.3V11.9984C103.3 12.5984 103.5 12.7984 103.9 12.7984C104.1 12.7984 104.2 12.7984 104.4 12.7984V13.5984C104.2 13.6984 103.9 13.6984 103.6 13.6984C103.2 13.6984 102.9 13.5984 102.7 13.2984C102.5 13.0984 102.4 12.5984 102.4 12.0984V9.79844H101.7V8.99844H102.4V8.19844L103.4 7.89844V8.99844H104.5V9.79844H104.4Z" fill="white"/>
<path d="M109.8 13.5984H108.8V10.9984C108.8 10.1984 108.5 9.79844 107.9 9.79844C107.4 9.79844 107.1 9.99844 106.9 10.4984C106.9 10.5984 106.9 10.6984 106.9 10.8984V13.5984H105.9V6.89844H106.9V9.69844C107.2 9.19844 107.7 8.89844 108.3 8.89844C108.7 8.89844 109.1 8.99844 109.3 9.29844C109.6 9.59844 109.8 10.1984 109.8 10.7984V13.5984Z" fill="white"/>
<path d="M115.3 11.1C115.3 11.3 115.3 11.4 115.3 11.6H112.3C112.3 12.1 112.5 12.4 112.7 12.6C113 12.8 113.3 12.9 113.7 12.9C114.2 12.9 114.6 12.8 114.9 12.7L115.1 13.4C114.7 13.6 114.2 13.7 113.6 13.7C112.9 13.7 112.3 13.5 111.9 13.1C111.5 12.7 111.3 12.1 111.3 11.4C111.3 10.7 111.5 10.1 111.9 9.7C112.3 9.2 112.8 9 113.5 9C114.2 9 114.7 9.2 115 9.7C115.2 10 115.3 10.5 115.3 11.1ZM114.4 10.8C114.4 10.5 114.3 10.2 114.2 10C114 9.7 113.8 9.6 113.4 9.6C113.1 9.6 112.8 9.7 112.6 10C112.4 10.2 112.3 10.5 112.3 10.8H114.4Z" fill="white"/>
</svg>
